<svg xmlns="http://www.w3.org/2000/svg" viewBox="0 0 950 578.72"><defs><style>.cls-1{fill:#fec600;}.cls-2{fill:#fff;}.cls-3{fill:#828282;}.cls-4{fill:#233940;}.cls-5{fill:#4f4f4f;}.cls-6{fill:#4a4a4a;}</style></defs><g id="Layer_2" data-name="Layer 2"><g id="Layer_1-2" data-name="Layer 1"><path class="cls-1" d="M911.85,395C911.85,189.2,664.76-12.34,459.37.59c-236.19,14.87-367.16,100-321.81,292.78,39.59,168.3,252.83,12.31,379.76,174.51C649.79,637.17,911.85,600.79,911.85,395Z"/><path class="cls-2" d="M34.1,134.94s-67,14.33-13.15,46,154.47,79,154.47,79,62.9,19.81,103.18-26,69.62,0,69.62,0,22.53,36,40.12,19.68,0-35.71,0-35.71-28.45-37.64,7.81-73.47,19.44-49.34,4.31-48S34.1,134.94,34.1,134.94Z"/><path class="cls-2" d="M809.07,559.18S806,504.8,777.44,444.91c-15-31.4-36.86-64.31-69-91.7,0,0-10.07,2.52-21.8,4.72-12.27,2.3-26.36,4.24-32.69,2.56,0,0,8.08,19.5-9.83,22.3-20.73,3.23-19.76-27.2-19.76-27.2s-5.38-1.37-13.7-4h0c-3.77-1.32-8.14-3.33-12.9-5.58-2,6-3.74,12-5.27,18.13-.39,1.55-.77,3.07-1.13,4.65-1.13,4.91-7,9.92-12.21,9.26-24.33-3-17.63-30.12-10.25-49.56,0-.11.07-.24.11-.35l-.19-.15a129.54,129.54,0,0,1-25.1-26.16L525.2,331.5c-7.88,10.16-37.72,6.63-27.22-17.08,25.33-57.18,71.55-91.15,90.54-90.23,0,0-39.51-5.21-92.11,9.22,0,0-24.46-9-15.09-24.63,13.54-22.65,108.8-35.14,164.92-23.49s194.9,86,265.61,188.91C911.85,374.2,931.65,510.39,809.07,559.18Z"/><path class="cls-3" d="M624.54,360.21c.62,7.8,3.54,23.08,16.87,23.08h.11c.12,0,.24-.13.36-.14a22,22,0,0,0,2.26-.36c8.32-1.29,11-6.21,11.54-11.1a.08.08,0,0,0,0,0,25.73,25.73,0,0,0-1.32-10.09c-.06-.13-.11-.27-.16-.41s-.12-.35-.16-.46l-.08-.2a16.63,16.63,0,0,0,2.76.47c0-.21-.07-.41-.1-.62l-2.77-.12a150.33,150.33,0,0,1-28.59-4.56C625.07,357.16,624.81,358.67,624.54,360.21Z"/><path class="cls-4" d="M650.41,329.19a84.12,84.12,0,0,0,3.2,18.71q1.29,4.56,3,9c.57,1.48,1.16,2.94,1.8,4.39l.24.57.27.72c.16.5.38,1,.5,1.48a18.93,18.93,0,0,1,.55,3.08,17.12,17.12,0,0,1-3.34,11.79,19.09,19.09,0,0,1-4.45,4.25,18.77,18.77,0,0,1-5.57,2.43A16.84,16.84,0,0,1,635,384.37a16,16,0,0,1-7.63-8.16,1.82,1.82,0,0,1,3.19-1.72l0,0a12.67,12.67,0,0,0,6.49,4.95,11.65,11.65,0,0,0,7.65-.22,12.57,12.57,0,0,0,3.21-1.89,12.44,12.44,0,0,0,2.35-2.78,12.17,12.17,0,0,0,1.64-6.83,9.63,9.63,0,0,0-.22-1.76c0-.29-.16-.57-.23-.87l-.12-.43c0-.15-.13-.39-.19-.58-.57-1.6-1.09-3.22-1.59-4.85a85.7,85.7,0,0,1-2.32-9.93A65.3,65.3,0,0,1,646.8,329a1.82,1.82,0,0,1,3.61.17Z"/><path class="cls-3" d="M674,250.94c-8.3-7.06-18.12-12.06-28.43-15.61a133.23,133.23,0,0,0-15.31-4.25c-8.09-1.75-37.52-14.47-34.5,2.08.12.62.2,1.29.27,2a29.39,29.39,0,0,1-11.11,25.44,213.75,213.75,0,0,0-16.66,14.87,18.11,18.11,0,0,1,2.49,2.1q2.06,2.1,4.25,4a12.22,12.22,0,0,0,.75,1.91,13.4,13.4,0,0,1,1.77,1.7,24.23,24.23,0,0,0,5.81,4.82,14.51,14.51,0,0,0,2.6.62c.12.34.28.66.43,1,6.26,2.95,13.6,4.23,20,5.28a13.55,13.55,0,0,1,3.77,1.19l.2,0,.22-.07c29,5.12,59.33-4.95,71.29-17.84C691.18,270.06,682.36,258,674,250.94Z"/><path class="cls-4" d="M595.09,225.48c-.42,0-.93,0-1.43.07a13.36,13.36,0,0,0-1.51.16c-1,.13-2,.25-3,.48s-2,.35-3,.64l-3,.83c-2,.57-3.9,1.39-5.85,2.06l-5.66,2.58A107.14,107.14,0,0,0,551,246.24C538.38,257.13,528,270.49,519,284.67c-1.19,1.73-2.15,3.61-3.25,5.41l-3.25,5.41c-1.06,1.82-2.23,3.58-3.2,5.45l-3,5.59-3,5.6-1.49,2.8a16.19,16.19,0,0,0-1.17,2.49,12.88,12.88,0,0,0,8,16.52A13.5,13.5,0,0,0,523.19,330l4.16-4.86,8.38-9.74a1.82,1.82,0,0,1,2.83,2.27L530.9,328,527,333.14a18.73,18.73,0,0,1-5.59,4.84,19,19,0,0,1-14.59,1.71,19.26,19.26,0,0,1-11.6-9.42,19.56,19.56,0,0,1-1.42-15.09,22.18,22.18,0,0,1,1.39-3.39l1.42-2.92,2.84-5.84,2.85-5.85a28.09,28.09,0,0,1,1.54-2.86l1.64-2.82c2.2-3.75,4.32-7.55,6.71-11.18s5-7.16,7.52-10.69c.6-.91,1.33-1.73,2-2.58l2.08-2.53,4.18-5c1.33-1.73,3-3.22,4.45-4.82l4.56-4.72a30.11,30.11,0,0,1,2.4-2.25l2.47-2.18c1.66-1.43,3.25-2.94,5-4.27a112.14,112.14,0,0,1,22.49-13.72c2.06-.81,4.11-1.63,6.18-2.39,2.14-.6,4.22-1.33,6.39-1.81l3.25-.68c1.08-.25,2.2-.33,3.3-.5a33.42,33.42,0,0,1,3.34-.28,16,16,0,0,1,1.7,0c.57,0,1.12,0,1.78.06a1.8,1.8,0,0,1-.15,3.6Z"/><path class="cls-3" d="M610.67,351.25c-3.77-1.38-8.14-3.17-12.9-5.41-2,6-3.74,12-5.27,18.2a15.57,15.57,0,0,1-5.47-4.8c-6.72-9.31-16.25-19.09-18.12-30.79a2.41,2.41,0,0,1-.08-.48c-.07-.41-.12-.84-.15-1.26a153.2,153.2,0,0,0,42,24.29A2.42,2.42,0,0,1,610.67,351.25Z"/><path class="cls-5" d="M379.89,172.6,33,135.15a8.84,8.84,0,0,0-4.28.67l-9,3.82a8.84,8.84,0,0,0-4.19,12.59h0a8.83,8.83,0,0,0,6.21,4.28l288.5,56.2s23.07-2.68,54.41,40.66c0,0,34.45,15.4,28-26.05C392.58,227.32,370.85,202.84,379.89,172.6Z"/><path class="cls-3" d="M773.35,309.85a9.2,9.2,0,0,1-1.27,1c-21.74,13.48-40.87,33.19-64.58,42.64l1-.24c32.12,27.39,70.75,83.28,92.29,157.25,4.49-2.62-16-73.14-18.06-79.24A156,156,0,0,1,784,325.81C786.69,318.49,780.39,311.08,773.35,309.85Z"/><path class="cls-4" d="M770.38,317.06a157.39,157.39,0,0,1-35.33,27.07,149.67,149.67,0,0,1-130,8.12,155.9,155.9,0,0,1-38.61-22.91,175.17,175.17,0,0,1-16.58-15.18c-2.59-2.71-5.11-5.5-7.52-8.37l-.91-1.09-.45-.54-.49-.65a23.12,23.12,0,0,1-1.81-2.77,21.17,21.17,0,0,1-2.22-6.23,21.62,21.62,0,0,1,1.57-13,23.6,23.6,0,0,1,1.61-2.91l1-1.36c.32-.42.55-.71,1-1.17a20.72,20.72,0,0,1,5-4.37,21.6,21.6,0,0,1,12.74-3.28,21.87,21.87,0,0,1,12.3,4.71c.44.35.87.71,1.28,1.09l1.08,1,1.89,1.79c1.24,1.22,2.65,2.24,4,3.37a67.21,67.21,0,0,0,8.69,5.68,70.79,70.79,0,0,0,19.5,7.25,86.85,86.85,0,0,0,20.93,1.88,103.47,103.47,0,0,0,10.54-.85,101.52,101.52,0,0,0,10.37-2,79.89,79.89,0,0,0,19.48-7.59,43.6,43.6,0,0,0,8.23-5.85c.56-.57,1.21-1.14,1.69-1.7l.71-.82.59-.87a10.31,10.31,0,0,0,1.48-3.66,12.74,12.74,0,0,0-1.75-8.15,31.77,31.77,0,0,0-6.1-7.7,75.9,75.9,0,0,0-17.23-11.91,158.37,158.37,0,0,0-40.64-14,216.06,216.06,0,0,0-43.16-4.44,231.78,231.78,0,0,0-43.33,3.89q-5.35,1-10.67,2.22c-3.55.81-7,1.78-10.68,2.67a40.75,40.75,0,0,1-11.59,1.39,21.41,21.41,0,0,1-6-1.13,21.77,21.77,0,0,1-5.47-2.86,23.61,23.61,0,0,1-7.57-9.4A24.71,24.71,0,0,1,476,210.65c.05-1,.26-2,.38-2.92a18.07,18.07,0,0,1,.62-2.85c.27-.93.46-1.89.8-2.79l1-2.69a22.59,22.59,0,0,1,1.17-2.61l1.25-2.56c.93-1.64,1.92-3.25,2.88-4.87a1.81,1.81,0,0,1,3.12,1.84v0l-.05.07c-3.74,6.08-6.62,12.8-7.1,19.62a20.32,20.32,0,0,0,1.71,9.76,19.09,19.09,0,0,0,6.26,7.45,16.47,16.47,0,0,0,9.08,2.94,36.67,36.67,0,0,0,10.2-1.42c3.45-.9,7.06-2,10.67-2.83s7.23-1.71,10.87-2.44a237.7,237.7,0,0,1,44.3-4.63,222.27,222.27,0,0,1,44.48,3.93c14.64,2.87,29.12,7.2,42.64,14.08a83,83,0,0,1,19,12.91,39,39,0,0,1,7.6,9.45,22.41,22.41,0,0,1,2.39,6.08,17.54,17.54,0,0,1,.29,6.94,18.12,18.12,0,0,1-2.51,6.53c-.31.47-.63.95-1,1.41L685,282.35c-.72.84-1.44,1.49-2.17,2.24a51.42,51.42,0,0,1-9.61,7,85.32,85.32,0,0,1-21.42,8.52,98.69,98.69,0,0,1-45.54,1.06A79,79,0,0,1,584.65,293a74.47,74.47,0,0,1-9.69-6.45c-1.46-1.27-3-2.45-4.4-3.81l-2.09-2-.89-.88-.81-.71a14.24,14.24,0,0,0-7.94-3.12,14,14,0,0,0-8.28,2.05,13.16,13.16,0,0,0-3.28,2.82,12,12,0,0,0-.8.95l-.64.87a16.18,16.18,0,0,0-1.07,1.9,14.25,14.25,0,0,0-1.11,8.52,13.91,13.91,0,0,0,1.43,4.12,14.86,14.86,0,0,0,1.18,1.85l.34.46.42.52.85,1c2.29,2.77,4.68,5.47,7.14,8.09A167.52,167.52,0,0,0,570.79,324a152.33,152.33,0,0,0,36.73,22.32,144.84,144.84,0,0,0,84.71,8.55,147.06,147.06,0,0,0,40.68-14.59,153.49,153.49,0,0,0,34.92-25.73h0a1.81,1.81,0,0,1,2.55,2.56Z"/><path class="cls-4" d="M687.07,325.37c30.47,27.21,56,59.58,77.28,94.42,5.35,8.7,10.28,17.66,14.94,26.76,1.14,2.3,2.36,4.5,3.44,6.9s2.22,4.78,3.07,7.28c.44,1.24.93,2.47,1.34,3.72l1.11,3.81.55,1.9.42,1.94.84,3.88a87.59,87.59,0,0,1-61,99.17,90.43,90.43,0,0,1-31.4,3.35c-5.31-.43-10.35-1.19-15.43-2.1s-10.1-2-15.09-3.21A234.9,234.9,0,0,1,610,550.64a253,253,0,0,1-25.88-16.51,300.07,300.07,0,0,1-23.73-19.38,1.81,1.81,0,0,1,2.37-2.74l0,0a297,297,0,0,0,24,18.38A268.79,268.79,0,0,0,612.51,546a229.17,229.17,0,0,0,56.17,20.79c4.88,1.09,9.78,2,14.72,2.8s9.93,1.42,14.74,1.74a83,83,0,0,0,28.73-3.51,81.57,81.57,0,0,0,25.48-13.48c1.95-1.43,3.71-3.1,5.52-4.69.89-.81,1.7-1.71,2.56-2.56s1.71-1.71,2.48-2.64l2.39-2.73,2.21-2.87c.37-.48.75-.94,1.1-1.44l1-1.5c.67-1,1.38-2,2-3A87,87,0,0,0,778.15,520a79,79,0,0,0,4.14-13.87l.38-1.77c.11-.6.18-1.2.27-1.8l.52-3.59.27-3.61.13-1.81,0-1.82v-3.63l-.22-3.62c0-.6-.06-1.21-.12-1.81l-.24-1.8-.48-3.6-.72-3.57-.37-1.78-.48-1.76-1-3.51c-.36-1.16-.8-2.29-1.19-3.44-.75-2.32-1.79-4.53-2.75-6.77s-2.18-4.5-3.25-6.75l-1.67-3.39-1.74-3.34c-1.17-2.23-2.31-4.47-3.51-6.68-2.44-4.4-4.84-8.83-7.4-13.16s-5.17-8.64-7.79-13-5.4-8.5-8.25-12.66-5.73-8.28-8.63-12.41S728.16,377,725,373a377.61,377.61,0,0,0-40.39-44.95h0a1.81,1.81,0,0,1,2.44-2.67Z"/><path class="cls-6" d="M946.55,437.23c-17-36.91-40.71-70.5-67.78-100.79a555.56,555.56,0,0,0-91.06-80.8c-2.05-1.5-4.14-2.94-6.25-4.36l-6.3-4.29c-4.22-2.83-8.52-5.53-12.78-8.3-4.35-2.62-8.65-5.33-13-7.88s-8.77-5.14-13.27-7.48l-6.7-3.61c-2.24-1.19-4.53-2.29-6.79-3.44-4.51-2.33-9.12-4.45-13.72-6.58-2.28-1.1-4.62-2.09-7-3.08l-7-3-7.07-2.76-3.54-1.38-3.58-1.26-7.17-2.51-7.24-2.25-3.62-1.11-3.66-1c-2.44-.63-4.87-1.33-7.33-1.91A219.81,219.81,0,0,0,622,184.54a207.82,207.82,0,0,0-30.15-.32l-7.52.59-7.49.94c-2.5.26-5,.77-7.45,1.19s-5,.83-7.41,1.43a205.54,205.54,0,0,0-29,8.35L529.4,198c-1.19.42-2.36.88-3.51,1.39l-7,2.93c-4.55,2.16-9.14,4.23-13.54,6.67a215.09,215.09,0,0,0-48.74,35.28,208.79,208.79,0,0,0-20.18,22.39c-6.26,7.84-11.48,16.48-17.63,24.91a105.34,105.34,0,0,1-10.17,12.14,48.3,48.3,0,0,1-13.27,9.6,39.94,39.94,0,0,1-16.21,3.82l-4.14-.17-1,0-1-.16-2-.31a66.13,66.13,0,0,1-7.87-1.7,114,114,0,0,1-28.72-12.94,242.17,242.17,0,0,1-25.2-18.16L297.32,274c-3.93-3.18-7.94-6.28-12-9.32q-12.15-9.12-24.89-17.43a514.29,514.29,0,0,0-108.81-53.68c-9.55-3.39-19.21-6.49-28.92-9.4s-19.54-5.45-29.37-7.81c-19.52-4.56-40.06-6.29-60.24-11.95-2.54-.69-5-1.46-7.55-2.33a45.37,45.37,0,0,1-7.65-3.37,25.85,25.85,0,0,1-3.72-2.51,16,16,0,0,1-3.42-3.68,10.74,10.74,0,0,1-1.83-5.72A10.29,10.29,0,0,1,10.74,141a18.75,18.75,0,0,1,7.53-6.05,39.19,39.19,0,0,1,8.07-2.73,61.14,61.14,0,0,1,8.08-1.25l7.63-.69,61-5.56q30.47-2.84,60.91-6t60.83-6.78c40.55-4.74,81.12-9.68,121.79-13.83l30.51-3,15.26-1.41L400,93a20.83,20.83,0,0,1,21.6,13.6,20.58,20.58,0,0,1,1.3,9,19.15,19.15,0,0,1-3,8.74,20.8,20.8,0,0,1-2.94,3.52l-2.81,2.66c-1.86,1.7-3.65,3.47-5.44,5.24-3.55,3.56-7,7.2-10.2,11-6.38,7.6-12.11,15.88-15,25a39.84,39.84,0,0,0-1.91,14,52.27,52.27,0,0,0,2.77,14.13c1.53,4.66,3.51,9.28,5.56,13.91l3.14,7,1.56,3.52.78,1.76.76,1.93a27.81,27.81,0,0,1,1.34,16.88,20.63,20.63,0,0,1-4,7.93,20.84,20.84,0,0,1-7,5.46,22.83,22.83,0,0,1-17.19.83A27,27,0,0,1,356,248.66c-.85-1.22-1.45-2.16-2.14-3.2s-1.42-2-2.16-3c-1.49-2-3.05-3.86-4.72-5.68a81.71,81.71,0,0,0-10.9-10,66.91,66.91,0,0,0-12.53-7.58,52.45,52.45,0,0,0-6.77-2.5,38.39,38.39,0,0,0-7-1.26,27.75,27.75,0,0,0-6.89.38,20.83,20.83,0,0,0-6.33,2.31,21.4,21.4,0,0,0-5.35,4.2c-.38.43-.81.82-1.16,1.28L289,225l-2.3,3.07A98.24,98.24,0,0,1,236.32,264a95.6,95.6,0,0,1-61.75-1.85h0l-.23-.1L8.73,178.32a1.81,1.81,0,0,1,1.62-3.24l166.16,82.65-.24-.1a90.72,90.72,0,0,0,58.52,1.48,93,93,0,0,0,47.49-34.23c.76-1,1.45-1.93,2.28-3.07l1.27-1.65c.42-.55.93-1,1.39-1.56a27.19,27.19,0,0,1,14.59-8.2,33.65,33.65,0,0,1,8.36-.51,45.34,45.34,0,0,1,8.09,1.42,56.75,56.75,0,0,1,7.59,2.76,72.19,72.19,0,0,1,13.67,8.17,86.8,86.8,0,0,1,11.72,10.62c1.79,1.93,3.48,4,5.1,6.06.8,1.05,1.57,2.13,2.33,3.22s1.51,2.28,2.14,3.15a21,21,0,0,0,10.39,8.15,16.82,16.82,0,0,0,12.63-.63,14.52,14.52,0,0,0,7.78-9.5,21.72,21.72,0,0,0-1.23-13.13l-.65-1.63-.77-1.74-1.56-3.47-3.18-7c-2.1-4.69-4.18-9.46-5.86-14.49a58.33,58.33,0,0,1-3.16-15.82,46.26,46.26,0,0,1,2.13-16.21,64.06,64.06,0,0,1,6.8-14.58,111.39,111.39,0,0,1,9.29-12.74c3.33-4,6.9-7.82,10.54-11.51,1.83-1.83,3.66-3.66,5.56-5.42l1.41-1.33.7-.66c.25-.23.47-.45.63-.62a14.42,14.42,0,0,0,1.95-2.34,12.79,12.79,0,0,0,1-11.62,14.4,14.4,0,0,0-8.5-8.41,14,14,0,0,0-6.07-.69l-7.61.73-15.23,1.46-30.44,3.14c-40.58,4.28-81.08,9.36-121.64,14.25s-81.21,9.43-121.92,13.09l-61,5.55-7.63.69a54.44,54.44,0,0,0-7,1.08,32.61,32.61,0,0,0-6.41,2.15,11.3,11.3,0,0,0-4.37,3.31,2.29,2.29,0,0,0-.47,1.34,2.8,2.8,0,0,0,.53,1.45,13.11,13.11,0,0,0,4.42,3.64,38.8,38.8,0,0,0,6.34,2.78c2.28.77,4.7,1.53,7.09,2.18,19.2,5.42,39.62,7.17,59.89,11.87,10,2.4,20,5,29.82,7.93s19.63,6.13,29.31,9.61A521.43,521.43,0,0,1,264.5,241.05q12.9,8.47,25.22,17.79,6.16,4.65,12.16,9.52l11.82,9.73a235.69,235.69,0,0,0,24.39,17.72A106.35,106.35,0,0,0,365,308.07a57.85,57.85,0,0,0,7.09,1.56l1.76.29.88.14.87,0,3.51.15a32.93,32.93,0,0,0,13.37-3.1,41,41,0,0,0,11.43-8.25,98.63,98.63,0,0,0,9.52-11.28c3-4,5.79-8.25,8.69-12.47,1.43-2.12,2.95-4.23,4.45-6.35s3.08-4.17,4.7-6.2a215.67,215.67,0,0,1,20.89-23,221.57,221.57,0,0,1,50.3-36.14c4.54-2.5,9.27-4.61,14-6.81l7.17-3c1.18-.51,2.39-1,3.61-1.41l3.65-1.33a211.85,211.85,0,0,1,29.84-8.49c2.52-.6,5.08-1,7.63-1.45s5.1-.92,7.68-1.19l7.71-.93,7.74-.59a213.16,213.16,0,0,1,31.05.45,225.63,225.63,0,0,1,30.59,5.18c2.51.61,5,1.33,7.48,2l3.74,1L668,188l7.38,2.32,7.28,2.58,3.64,1.29,3.59,1.42,7.18,2.83,7.08,3.06c2.36,1,4.73,2,7,3.15,4.65,2.18,9.32,4.34,13.87,6.72,2.29,1.17,4.6,2.29,6.86,3.5l6.77,3.68a498.92,498.92,0,0,1,52,32.86A559.74,559.74,0,0,1,882,333.53a463.5,463.5,0,0,1,37.7,48.58,368.81,368.81,0,0,1,30.11,53.64,1.81,1.81,0,0,1-3.29,1.5Z"/></g></g></svg>